# xmcd
#
# Track frame offsets:
#	150
#	24928
#	46353
#	62205
#	81558
#	97223
#	112810
#	135178
#	151655
#	168528
#
# Disc length: 2525
#
# Revision: 2
# Processed by: cddbd v1.5.1PL0 Copyright (c) Steve Scherf et al.
# Submitted via: MusiCat 1.1
# Normalized: r1:DSETVAR1,TDELIM( - )
#
DISCID=7809db0a
DTITLE=Various Artist - Best of Island Music Vol I
DYEAR=1994
DGENRE=
TTITLE0=You Look Wonderful Tonight - Simplisity
TTITLE1=Pua Olena - Annette
TTITLE2=I Wouldn't Go That Far - Dita Holifield
TTITLE3=Heartaches and Heartbreak - New Generation
TTITLE4=You Are the Song - Homegrown Band
TTITLE5=I'll Be There For You - Peter Milo
TTITLE6=I'm so Lucky - Sistah Sistah
TTITLE7=Woman Is Smarter - 3 Scoops of Aloha
TTITLE8=Living In A Fantasy - Rainbow
TTITLE9=Regge Music - Sundance
EXTD=1994\nHana Hou Records\nHHD8801-2\n
EXTT0=
EXTT1=
EXTT2=
EXTT3=
EXTT4=
EXTT5=
EXTT6=
EXTT7=
EXTT8=
EXTT9=
PLAYORDER=
